<svg width="576" height="575" viewBox="0 0 576 575" fill="none" xmlns="http://www.w3.org/2000/svg">
    <g clip-path="url(#clip0_1679_543)">
    <path fill-rule="evenodd" clip-rule="evenodd" d="M189.998 0.0440018C119.146 1.01 96.0121 1.824 86.9981 3.665C82.8731 4.508 78.7171 5.351 77.7631 5.539C73.7481 6.327 55.1121 14.36 50.4981 17.29C38.6391 24.822 26.6231 36.074 21.3401 44.594C19.7771 47.114 17.5981 50.626 16.4981 52.397C15.3981 54.169 13.4801 57.167 12.2361 59.059C10.0891 62.324 8.45509 66.894 7.73209 71.652C7.55209 72.836 6.88409 74.432 6.24809 75.199C5.61209 75.965 5.11509 77.471 5.14409 78.546C5.27209 83.34 3.72509 97.597 2.97809 98.51C1.59809 100.197 0.261087 122.989 -0.130913 151.5C-0.863913 204.815 -0.0299137 446.691 0.940086 462.037C1.48309 470.644 2.38509 478.888 2.94409 480.359C3.50309 481.829 4.17709 486.03 4.44209 489.694C5.22809 500.562 10.3771 515.716 14.5691 519.5C15.7881 520.6 17.6321 523.075 18.6661 525C19.7011 526.925 21.3801 529.745 22.3991 531.267C25.1241 535.34 35.6021 546 36.8801 546C37.4851 546 38.5431 546.9 39.2301 548C39.9171 549.1 40.9671 550 41.5641 550C42.1611 550 43.7061 551.125 44.9981 552.5C46.2901 553.875 47.8731 555 48.5171 555C49.1601 555 50.9941 556.124 52.5921 557.499C54.1911 558.873 56.1041 559.998 56.8441 559.999C57.5841 559.999 59.4991 560.933 61.1001 562.072C63.6621 563.897 72.4431 567.304 81.4981 569.986C84.6711 570.927 98.3171 572.411 118.998 574.067C126.915 574.701 192.722 574.936 298.498 574.71C460.368 574.363 465.959 574.289 480.498 572.298C508.845 568.416 526.384 559.953 544.356 541.485C552.338 533.283 553.304 532.084 554.81 528.5C555.503 526.85 557.629 523.763 559.534 521.64C561.439 519.516 562.998 517.408 562.998 516.955C562.998 516.501 563.521 514.863 564.159 513.315C564.798 511.767 565.248 510.163 565.159 509.75C565.071 509.337 565.385 509 565.859 509C567.205 509 570.663 496.551 572.524 485C575.385 467.247 575.831 435.193 575.465 273.5C575.145 131.822 574.655 101.569 572.545 93C572.207 91.625 571.55 87.281 571.085 83.346C570.62 79.411 569.511 74.73 568.619 72.942C567.727 71.155 566.998 69.267 566.998 68.747C566.998 68.228 566.386 66.384 565.639 64.651C561.848 55.864 561.036 54.442 556.713 49.003C553.461 44.912 553.27 44.649 550.044 39.845C548.694 37.835 546.331 35.447 544.794 34.538C543.256 33.63 541.998 32.27 541.998 31.516C541.998 29.952 535.152 24 533.354 24C532.7 24 530.235 22.2 527.876 20C525.517 17.8 523.067 16 522.432 16C521.797 16 519.722 14.944 517.821 13.654C515.919 12.364 513.075 10.985 511.498 10.589C509.922 10.194 506.854 9.011 504.679 7.96C498.665 5.055 483.86 2.283 470.498 1.56C463.898 1.204 455.123 0.728002 450.998 0.502002C436.074 -0.312998 241.236 -0.653998 189.998 0.0440018ZM171.665 166.667C170.409 167.922 170.999 170.312 173.327 173.406C174.608 175.108 182.8 189.1 191.531 204.5C207.768 233.14 211.101 237.675 219.457 242.489C228.699 247.814 229.281 247.868 279.36 248.075C305.011 248.181 325.982 248.545 325.961 248.884C325.941 249.223 303.821 260.525 276.805 274C249.789 287.475 225.393 300.036 222.591 301.913C210.537 309.991 200.145 322.122 193.22 336.197C186.697 349.454 184.35 369.216 187.403 385.162C188.91 393.034 193.283 406.434 195.034 408.543C195.878 409.561 207.556 409.854 250.892 409.944C281.026 410.007 306.428 409.772 307.34 409.422C308.252 409.072 308.998 408.318 308.998 407.747C308.998 406.87 300.391 391.801 292.579 379C291.404 377.075 289.852 374.428 289.129 373.118C288.407 371.807 284.409 364.832 280.245 357.618C267.45 335.449 266.188 333.173 265.515 331.053C264.866 329.009 265.017 329 299.989 329C335.024 329 344.928 328.326 354.498 325.291C375.066 318.769 393.524 302.935 403.216 283.5C410.919 268.051 413.477 246.413 409.6 229.5C407.594 220.747 401.94 207.684 397.139 200.704C389.504 189.608 374.198 177.351 361.236 171.955C346.811 165.95 348.335 166.036 256.415 166.017C210.169 166.008 172.031 166.3 171.665 166.667Z" fill="#0284c7"/>
    </g>
    <defs>
    <clipPath id="clip0_1679_543">
    <rect width="576" height="575" fill="white"/>
    </clipPath>
    </defs>
    </svg>
