<svg width="241" height="244" viewBox="0 0 241 244" fill="none" xmlns="http://www.w3.org/2000/svg">
    <path fill-rule="evenodd" clip-rule="evenodd" d="M0.644819 0.650212C-0.60718 1.90221 -0.0241845 4.29221 2.29082 7.38921C3.56282 9.09121 11.7578 23.0832 20.5018 38.4832C36.7508 67.1022 40.1148 71.6772 48.4368 76.4722C57.6248 81.7662 58.6618 81.8702 103.608 81.9912C126.637 82.0532 147.602 82.3582 150.199 82.6682L154.92 83.2332L104.281 108.685C53.1648 134.377 50.6198 135.804 41.3388 143.964C33.0958 151.212 23.4958 165.367 19.6218 175.983C15.0448 188.526 13.7708 205.504 16.3828 219.145C17.9078 227.111 22.2698 240.425 24.0618 242.584C24.9708 243.679 35.3318 243.935 79.9698 243.966C110.106 243.986 135.486 243.725 136.37 243.386C137.254 243.047 137.978 242.301 137.978 241.73C137.978 241.158 134.883 235.469 131.1 229.087C124.257 217.541 104.565 183.65 98.3858 172.786C92.1848 161.881 88.7238 162.984 129.161 162.979C168.584 162.975 176.632 162.191 189.302 157.117C202.713 151.747 215.051 142.238 224.427 130.047C238.103 112.262 243.708 85.9002 238.577 63.4832C236.575 54.7332 230.923 41.6712 226.119 34.6872C218.484 23.5912 203.178 11.3342 190.216 5.93821C175.791 -0.0667939 177.315 0.0192026 85.3948 0.000202583C39.1488 -0.00879742 1.01082 0.283212 0.644819 0.650212Z" fill="#0284c7"/>
    </svg>
